<svg width="42" height="42" viewBox="0 0 42 42" fill="none" xmlns="http://www.w3.org/2000/svg">
<path d="M32.8125 5.90625H9.1875C7.35 5.90625 5.90625 7.35 5.90625 9.1875V32.8125C5.90625 34.65 7.35 36.0938 9.1875 36.0938H32.8125C34.65 36.0938 36.0938 34.65 36.0938 32.8125V9.1875C36.0938 7.35 34.65 5.90625 32.8125 5.90625ZM34.7812 32.8125C34.7812 33.9281 33.9281 34.7812 32.8125 34.7812H9.1875C8.07187 34.7812 7.21875 33.9281 7.21875 32.8125V9.1875C7.21875 8.07187 8.07187 7.21875 9.1875 7.21875H32.8125C33.9281 7.21875 34.7812 8.07187 34.7812 9.1875V32.8125ZM29.5312 12.4688H12.4688C11.3833 12.4688 10.5 13.3521 10.5 14.4375V27.5625C10.5 28.6479 11.3833 29.5312 12.4688 29.5312H29.5312C30.6167 29.5312 31.5 28.6479 31.5 27.5625V14.4375C31.5 13.3521 30.6167 12.4688 29.5312 12.4688ZM29.4459 13.7812L21.9286 21.2986C21.483 21.7448 20.7047 21.7455 20.2578 21.2986L12.7404 13.7812H29.4459ZM11.8125 27.2908V14.7092L18.1033 21L11.8125 27.2908ZM12.7404 28.2188L19.0312 21.9279L19.3298 22.2265C19.8004 22.6977 20.4271 22.9569 21.0932 22.9569C21.7599 22.9569 22.386 22.6977 22.8572 22.2265L23.0692 22.0146L29.4295 28.2188H12.7404ZM30.1875 27.1248L23.9971 21.0866L30.1875 14.8956V27.1248ZM17.7188 26.9062H24.2812V25.5938H17.7188V26.9062Z" fill="url(#paint0_linear_141_50)"/>
<path d="M16.8598 15.0938H25.1403C25.4914 15.0938 25.6666 15.5177 25.4186 15.7658L21.2783 19.906C21.1247 20.0596 20.8754 20.0596 20.7211 19.906L16.5809 15.7658C16.3335 15.5177 16.5087 15.0938 16.8598 15.0938Z" fill="url(#paint1_linear_141_50)"/>
<defs>
<linearGradient id="paint0_linear_141_50" x1="21" y1="36.0938" x2="21" y2="5.90625" gradientUnits="userSpaceOnUse">
<stop stop-color="#C822FF"/>
<stop offset="1" stop-color="#1A6DFF"/>
</linearGradient>
<linearGradient id="paint1_linear_141_50" x1="21.0001" y1="20.0215" x2="21.0001" y2="15.0938" gradientUnits="userSpaceOnUse">
<stop stop-color="#E6ABFF"/>
<stop offset="1" stop-color="#6DC7FF"/>
</linearGradient>
</defs>
</svg>
